<?xml version="1.0" encoding="UTF-8"?>
<!DOCTYPE svg PUBLIC "-//W3C//DTD SVG 1.1//EN" "http://www.w3.org/Graphics/SVG/1.1/DTD/svg11.dtd">
<svg xmlns="http://www.w3.org/2000/svg" version="1.1" width="100px" height="100px" style="shape-rendering:geometricPrecision; text-rendering:geometricPrecision; image-rendering:optimizeQuality; fill-rule:evenodd; clip-rule:evenodd" xmlns:xlink="http://www.w3.org/1999/xlink">
<g><path style="opacity:0.885" fill="#ffa801" d="M 39.5,-0.5 C 41.5,-0.5 43.5,-0.5 45.5,-0.5C 50.198,2.0492 52.698,6.0492 53,11.5C 64.5,23 76,34.5 87.5,46C 92.9508,46.302 96.9508,48.802 99.5,53.5C 99.5,55.5 99.5,57.5 99.5,59.5C 88.6991,71.1337 77.3658,82.3004 65.5,93C 60.8234,93.2479 56.9901,91.4146 54,87.5C 52.3797,80.6928 48.5464,75.3595 42.5,71.5C 32.6341,79.356 24.6341,88.6893 18.5,99.5C 15.8333,99.5 13.1667,99.5 10.5,99.5C 6.5,96.1667 2.83333,92.5 -0.5,88.5C -0.5,85.8333 -0.5,83.1667 -0.5,80.5C 10.3107,74.3659 19.644,66.3659 27.5,56.5C 23.6405,50.4536 18.3072,46.6203 11.5,45C 7.58543,42.0099 5.75209,38.1766 6,33.5C 16.6996,21.6342 27.8663,10.3009 39.5,-0.5 Z"/></g>
<g><path style="opacity:1" fill="#fff4e2" d="M 37.5,24.5 C 39.3904,24.2965 40.8904,24.9632 42,26.5C 43.9728,31.7789 46.4728,36.7789 49.5,41.5C 52.1443,38.8915 54.311,35.8915 56,32.5C 56.6667,31.1667 57.3333,31.1667 58,32.5C 62.3049,44.4069 65.9716,56.4069 69,68.5C 64.3333,61.8333 59.6667,55.1667 55,48.5C 52.3333,51.8333 49.6667,55.1667 47,58.5C 41.3972,50.9605 36.5639,42.9605 32.5,34.5C 34.1751,31.1498 35.8418,27.8165 37.5,24.5 Z"/></g>
</svg>
